<svg id="Layer_1" data-name="Layer 1" xmlns="http://www.w3.org/2000/svg" viewBox="0 0 283.46 283.46"><defs><style>.cls-1{fill:#515f6d;}</style></defs><title>HoC-icon_dark</title><rect class="cls-1" x="144.33" y="180.57" width="51.53" height="9.6"/><rect class="cls-1" x="92.89" y="163.11" width="70.67" height="9.6"/><rect class="cls-1" x="104.23" y="145.66" width="24.42" height="9.6"/><rect class="cls-1" x="137.38" y="145.66" width="11.33" height="9.6"/><rect class="cls-1" x="172.29" y="163.11" width="11.33" height="9.6"/><rect class="cls-1" x="192.34" y="163.11" width="37.51" height="9.6"/><rect class="cls-1" x="157.43" y="145.66" width="46.23" height="9.6"/><rect class="cls-1" x="163.56" y="128.2" width="28.78" height="9.6"/><rect class="cls-1" x="146.1" y="110.75" width="22.67" height="9.6"/><rect class="cls-1" x="177.5" y="110.75" width="34.89" height="9.6"/><rect class="cls-1" x="92.89" y="128.2" width="61.95" height="9.6"/><rect class="cls-1" x="128.65" y="93.29" width="63.69" height="9.6"/><rect class="cls-1" x="110.34" y="110.75" width="27.03" height="9.6"/><polygon class="cls-1" points="135.6 190.17 53.61 190.17 53.61 132.2 100.55 93.29 119.92 93.29 119.92 102.89 104.01 102.89 63.21 136.71 63.21 180.57 135.6 180.57 135.6 190.17"/></svg>